cover
 
http://img233.imageshack.us/img233/9206/84231497230877095952.png

Format;Avi

File Size:771mb

Release Notes:Video:Own

Audio:Own

Alright here we go with the first cam of N Secure had a few issues needed some cropping saturation was to high
was way to bright so fixed those issues all in all very watchable cam

Enjoy


Video: ID : 0
Format : MPEG-4 Visual
Format profile : Simple@L3
Format settings, BVOP : No
Format settings, QPel : No
Format settings, GMC : No warppoints
Format settings, Matrix : Default (H.263)
Codec ID : XVID
Codec ID/Hint : XviD
Duration : 1h 38mn
Bit rate : 960 Kbps
Width : 720 pixels
Height : 400 pixels
Display aspect ratio : 16:9
Frame rate : 29.970 fps
Color space : YUV
Chroma subsampling : 4:2:0
Bit depth : 8 bits
Scan type : Progressive
Bits/(Pixel*Frame) : 0.111
Stream size : 674 MiB (87%)
Writing library : XviD 1.2.1 (UTC 2008-12-04)

Audio: ID : 1
Format : MPEG Audio
Format version : Version 1
Format profile : Layer 3
Mode : Joint stereo
Mode extension : MS Stereo
Codec ID : 55
Codec ID/Hint : MP3
Duration : 1h 38mn
Bit rate mode : Constant
Bit rate : 128 Kbps
Channel(s) : 2 channels
Sampling rate : 48.0 KHz
Stream size : 89.8 MiB (12%)
Alignment : Split accross interleaves
Interleave, duration : 33 ms (1.00 video frame)
Interleave, preload duration : 500 ms

Duration:1:38

Release Date:2010

Language:English


Plot: N-Secure is a no holds-barred thrilling drama mixed with murder, mayhem and manipulation among affluent professionals. This film sheds light on a man's downfall from the pinnacles of success into the depths of his damaged character. His insecurities lead him into a series of troubled romantic relationships and eventually a web of events that include betrayal and murder.

Cast: Cordell Moore ...
David Alan Washington
Essence Atkins Essence Atkins ...
Robin Joyner
Denise Boutte Denise Boutte ...
Tina Simpson
Tempestt Bledsoe Tempestt Bledsoe ...
Jill
Lamman Rucker Lamman Rucker ...
Isaac Roberts
Toni Trucks Toni Trucks ...
Denise

screens
 
http://img839.imageshack.us/img839/7855/vlcsnap2010110712h46m05.png 
http://img207.imageshack.us/img207/3869/vlcsnap2010110712h47m15.png 
http://img261.imageshack.us/img261/4195/vlcsnap2010110712h54m21.png 
http://img835.imageshack.us/img835/9779/vlcsnap2010110712h50m34.png 
http://img232.imageshack.us/img232/1049/vlcsnap2010110712h51m27.png 
http://img253.imageshack.us/img253/4135/vlcsnap2010110712h52m27.png 
http://img257.imageshack.us/img257/8071/vlcsnap2010110712h55m52.png
 
http://www.imdb.com/title/tt1289419/